<?xml version="1.0" standalone="no"?>
<!DOCTYPE svg PUBLIC "-//W3C//DTD SVG 20010904//EN"
 "http://www.w3.org/TR/2001/REC-SVG-20010904/DTD/svg10.dtd">
<svg version="1.0" xmlns="http://www.w3.org/2000/svg"
 width="700.000000pt" height="700.000000pt" viewBox="0 0 700.000000 700.000000"
 preserveAspectRatio="xMidYMid meet">
<metadata>
Created by potrace 1.14, written by Peter Selinger 2001-2017
</metadata>
<g transform="translate(0.000000,700.000000) scale(0.100000,-0.100000)"
fill="#000000" stroke="none">
<path d="M3445 6991 c-32 -14 -75 -62 -83 -94 -4 -17 -8 -459 -7 -984 l0 -953
-45 -1 c-25 -1 -63 -1 -85 0 -57 1 -117 -31 -142 -77 -19 -35 -21 -53 -21
-317 0 -154 -1 -287 -1 -296 -1 -9 -26 -33 -57 -54 -407 -280 -500 -836 -206
-1232 29 -40 77 -93 105 -119 66 -60 184 -137 242 -160 25 -9 45 -20 45 -25 0
-4 -11 -73 -25 -153 -14 -81 -27 -156 -29 -169 -3 -21 -7 -22 -129 -23 -103
-1 -131 -5 -158 -20 -76 -45 -98 -124 -56 -197 32 -55 85 -79 166 -77 31 1 71
1 90 1 l34 -1 -7 -42 c-7 -51 -6 -44 -61 -373 -24 -143 -46 -276 -49 -295 -3
-19 -8 -48 -11 -65 -3 -16 -7 -43 -10 -60 -3 -16 -7 -41 -10 -55 -3 -14 -8
-45 -11 -70 -3 -25 -9 -63 -14 -85 -5 -22 -11 -60 -15 -85 -4 -25 -18 -110
-31 -190 -14 -80 -27 -158 -30 -175 -4 -29 -14 -83 -20 -116 -38 -221 -46
-293 -33 -331 8 -24 27 -51 48 -66 l34 -27 626 -2 626 -3 39 23 c57 32 79 78
71 149 -3 31 -8 67 -10 80 -3 12 -17 93 -31 178 -14 85 -27 164 -28 175 -8 44
-16 92 -21 120 -2 17 -7 41 -9 55 -3 14 -8 41 -10 60 -3 19 -8 44 -10 56 -2
12 -7 45 -11 75 -4 30 -8 56 -10 59 -2 3 -6 28 -9 55 -4 28 -11 68 -16 90 -5
22 -11 58 -14 80 -4 22 -15 96 -27 165 -28 170 -28 172 -33 200 -3 14 -8 42
-11 63 -10 74 -55 332 -60 345 -3 9 13 12 60 13 36 0 82 1 103 1 61 1 107 30
136 85 31 61 12 132 -47 177 -34 26 -41 27 -165 29 -72 1 -132 4 -135 7 -3 3
-7 28 -11 57 -3 29 -10 74 -16 100 -5 26 -12 66 -15 88 -3 22 -8 54 -11 70 -5
28 -2 31 41 49 115 46 259 161 342 270 265 353 228 838 -87 1146 -56 55 -125
110 -138 110 -31 0 -34 32 -34 317 0 262 -2 292 -19 329 -26 55 -76 82 -154
82 -33 0 -73 1 -90 1 l-30 1 1 961 c0 911 -1 964 -18 999 -30 59 -124 96 -183
71z m199 -2466 c-1 -77 -2 -143 -3 -146 0 -3 -65 -5 -143 -4 l-143 1 -1 139
c0 77 1 143 2 146 2 3 67 5 146 5 l144 0 -2 -141z m-74 -449 c174 -18 339
-126 430 -281 58 -100 81 -183 81 -297 -1 -354 -322 -629 -670 -573 -81 12
-199 60 -254 103 -183 141 -270 368 -228 592 29 152 155 318 297 392 82 43
230 81 279 71 6 -1 35 -4 65 -7z m-53 -1458 c6 -7 13 -31 16 -53 12 -77 25
-160 32 -196 l7 -36 -71 0 c-80 0 -73 -12 -55 97 4 25 8 54 10 65 2 11 5 31 8
45 3 14 6 36 8 50 5 37 27 51 45 28z m75 -577 c28 -1 27 1 42 -91 2 -14 9 -52
15 -85 6 -33 13 -78 16 -100 4 -22 8 -51 11 -65 2 -14 31 -189 65 -390 33
-201 62 -376 65 -390 2 -14 20 -119 39 -235 19 -115 37 -219 39 -230 2 -11 7
-40 11 -65 3 -25 8 -57 11 -72 l4 -26 -411 0 -410 -1 5 32 c3 18 35 210 71
427 36 217 68 406 70 420 2 14 20 122 40 240 20 118 38 226 40 240 5 30 53
315 59 350 3 14 5 28 5 32 1 10 37 13 116 11 39 -1 82 -2 97 -2z"/>
</g>
</svg>
